<?xml version="1.0" standalone="no"?>
<!DOCTYPE svg PUBLIC "-//W3C//DTD SVG 1.1//EN" "http://www.w3.org/Graphics/SVG/1.1/DTD/svg11.dtd" >
<svg xmlns="http://www.w3.org/2000/svg">
<metadata></metadata>
<defs>
<font id="daxcondensed-boldregular" horiz-adv-x="935" >
<font-face units-per-em="2048" ascent="1638" descent="-410" />
<missing-glyph horiz-adv-x="495" />
<glyph horiz-adv-x="2048" />
<glyph horiz-adv-x="2048" />
<glyph unicode="&#xd;" horiz-adv-x="495" />
<glyph unicode=" "  horiz-adv-x="495" />
<glyph unicode="&#x09;" horiz-adv-x="495" />
<glyph unicode="&#xa0;" horiz-adv-x="495" />
<glyph unicode="!" horiz-adv-x="587" d="M145 152q0 70 49.5 118.5t118.5 48.5q70 0 119 -49t49 -118q0 -72 -47 -121t-121 -49q-70 0 -119 49t-49 121zM147 1409h330l-57 -915h-213z" />
<glyph unicode="&#x22;" horiz-adv-x="806" d="M123 1362q39 66 117 65q78 0 116 -65l-53 -567h-127zM467 1362q41 66 117 65q78 0 116 -65l-53 -567h-129z" />
<glyph unicode="#" d="M31 449v145h174l39 256h-154v145h174l62 414h145l-61 -414h186l59 414h148l-62 -412h156v-145h-176l-39 -258h156v-145h-176l-64 -449h-147l65 449h-184l-68 -449h-145l65 449h-153zM350 594h187l38 258h-184z" />
<glyph unicode="$" d="M106 61l64 220q27 -23 82 -43.5t115 -20.5q72 0 114.5 41t42.5 104q0 125 -202.5 296t-202.5 382q0 154 82 256.5t215 124.5l-17 244h156l-20 -238q76 0 135 -21.5t102 -57.5l-51 -191q-29 23 -73 38t-103 15q-66 0 -107 -38.5t-41 -110.5q0 -68 36 -122t152.5 -151.5 t175 -188.5t58.5 -216q0 -162 -86 -268t-233 -129l20 -250h-162l21 244q-92 0 -156.5 20t-116.5 61z" />
<glyph unicode="%" horiz-adv-x="1499" d="M88 946q0 203 55.5 343.5t200.5 140.5q143 0 199.5 -141.5t56.5 -342.5q0 -205 -55.5 -344t-200.5 -139q-143 0 -199.5 141t-56.5 342zM250 946q0 -152 17.5 -245t76.5 -93t76.5 98.5t17.5 239.5q0 113 -12 239t-82 126q-59 0 -76.5 -106.5t-17.5 -258.5zM483 18 l404 1409l125 -36l-404 -1409zM897 465q0 201 55.5 341t200.5 140q143 0 200.5 -140t57.5 -341q0 -203 -56.5 -344t-201.5 -141q-143 0 -199.5 141t-56.5 344zM1061 465q0 -152 16.5 -246t75.5 -94q72 0 83 120t11 220q0 158 -16.5 260t-77.5 102q-57 0 -74.5 -107.5 t-17.5 -254.5z" />
<glyph unicode="&#x26;" horiz-adv-x="1132" d="M92 391q0 133 69.5 233.5t184.5 155.5q-88 49 -134 123t-46 176q0 150 96 250.5t264 100.5q100 0 171 -20.5t122 -61.5l-76 -179q-23 14 -66.5 29.5t-90.5 15.5q-74 0 -116 -39.5t-42 -121.5q0 -72 51 -119t127 -47q96 0 215 45t234 115l80 -185q-27 -16 -87.5 -39.5 t-103.5 -31.5l2 -730q-53 -39 -147 -60t-232 -21q-209 0 -342 109.5t-133 301.5zM381 422q0 -115 51 -182.5t148 -67.5q57 0 98 18v539q-162 -41 -229.5 -110.5t-67.5 -196.5z" />
<glyph unicode="'" horiz-adv-x="499" d="M123 1362q47 66 135 65q88 0 137 -65l-61 -567h-150z" />
<glyph unicode="(" horiz-adv-x="675" d="M94 586q0 270 93.5 505.5t330.5 544.5l125 -80q-129 -211 -202.5 -454.5t-73.5 -515.5q0 -268 73.5 -514t202.5 -459l-125 -80q-236 309 -330 544.5t-94 508.5z" />
<glyph unicode=")" horiz-adv-x="675" d="M33 -387q127 211 201.5 456.5t74.5 516.5q0 268 -73.5 512.5t-202.5 457.5l125 80q236 -309 330 -544.5t94 -505.5t-93 -507t-331 -546z" />
<glyph unicode="*" horiz-adv-x="843" d="M98 1370q0 41 29 69.5t70 28.5q39 0 67.5 -28.5t28.5 -69.5q0 -39 -28.5 -67.5t-69.5 -28.5q-39 0 -68 28.5t-29 67.5zM186 1094q0 41 29 69.5t70 28.5t68.5 -27.5t27.5 -70.5q0 -41 -27.5 -69t-68.5 -28t-70 27t-29 70zM334 1542q0 41 28.5 69.5t69.5 28.5 q39 0 67.5 -28.5t28.5 -69.5q0 -39 -28.5 -67.5t-69.5 -28.5t-68.5 27.5t-27.5 68.5zM356 1294q0 31 21.5 52.5t54.5 21.5q31 0 52.5 -21.5t21.5 -52.5q0 -29 -22.5 -51t-53.5 -22t-52.5 21.5t-21.5 51.5zM479 1094q0 41 29 69.5t70 28.5q39 0 67.5 -28.5t28.5 -69.5 q0 -39 -29 -68t-70 -29t-68.5 28t-27.5 69zM569 1370q0 41 29 69.5t70 28.5q39 0 67.5 -28.5t28.5 -69.5q0 -39 -28.5 -67.5t-69.5 -28.5t-69 27.5t-28 68.5z" />
<glyph unicode="+" d="M111 598v176h268v330h176v-332h272v-174h-270v-332h-176v332h-270z" />
<glyph unicode="," horiz-adv-x="542" d="M-2 -352l158 577q57 92 168 92q61 0 90.5 -23.5t36.5 -68.5l-281 -577h-172z" />
<glyph unicode="-" horiz-adv-x="618" d="M84 569v232h451v-232h-451z" />
<glyph unicode="." horiz-adv-x="522" d="M92 152q0 72 49 121t119 49q72 0 121 -49.5t49 -118.5q0 -72 -49 -121t-119 -49q-72 0 -121 49t-49 119z" />
<glyph unicode="/" horiz-adv-x="1026" d="M20 -401l820 2033l166 -67l-820 -2032z" />
<glyph unicode="0" d="M78 705q0 309 85 517t304 208t306 -209t87 -516q0 -311 -86 -518t-307 -207q-219 0 -304 207.5t-85 517.5zM328 696q0 -262 26.5 -382.5t112.5 -120.5t113.5 123.5t27.5 379.5q0 260 -28.5 398.5t-112.5 138.5q-82 0 -110.5 -138.5t-28.5 -398.5z" />
<glyph unicode="1" d="M111 1196q143 18 246.5 80.5t134.5 132.5h194v-1409h-268v1087q-43 -18 -124 -35.5t-157 -17.5z" />
<glyph unicode="2" d="M43 0l418 725q49 88 68.5 149.5t19.5 122.5q0 94 -54.5 152.5t-154.5 58.5q-55 0 -97 -12t-79 -35l-68 187q57 39 136 60.5t180 21.5q201 0 304 -119t103 -287q0 -158 -141 -375l-264 -403h407v-246h-778z" />
<glyph unicode="3" d="M63 61l74 201q33 -25 82 -40t123 -15q90 0 148.5 62.5t58.5 156.5q0 113 -77 181.5t-206 68.5v155q123 14 190.5 68.5t67.5 144.5q0 74 -48 122t-132 48q-55 0 -94 -13t-80 -38l-68 185q55 39 134 60.5t178 21.5q174 0 271 -101.5t97 -245.5q0 -98 -47 -168.5 t-114 -113.5q90 -53 145 -143.5t55 -223.5q0 -190 -122 -322t-298 -132q-121 0 -199.5 19t-138.5 62z" />
<glyph unicode="4" d="M78 279v186l444 944h250v-948h88v-182h-88v-279h-254v279h-440zM246 461h272v446l4 144q-12 -29 -28.5 -65t-36.5 -77z" />
<glyph unicode="5" d="M68 61l71 201q33 -25 85 -40t124 -15q84 0 143.5 63.5t59.5 153.5q0 111 -64.5 183.5t-203.5 72.5q-72 0 -154 -21l64 750h593v-246h-415l-23 -299q233 0 355 -115.5t122 -320.5q0 -182 -121 -315t-303 -133q-215 0 -333 81z" />
<glyph unicode="6" d="M78 518q0 299 116.5 493.5t259 290t242.5 123.5l68 -196q-111 -39 -217.5 -134.5t-157.5 -244.5q39 14 98 14q180 0 276.5 -121.5t96.5 -314.5q0 -188 -99.5 -318t-287.5 -130q-180 0 -287.5 143t-107.5 395zM328 512q0 -168 40 -251t107 -83q133 0 133 250 q0 117 -44 189.5t-136 72.5q-53 0 -88 -12q-12 -72 -12 -166z" />
<glyph unicode="7" d="M94 1163v246h803l-152 -432q-109 -311 -182.5 -562t-99.5 -415h-324l428 1163h-473z" />
<glyph unicode="8" d="M78 352q0 119 57.5 206t173.5 177q-104 90 -150 167t-46 185q0 154 102 248.5t252 94.5q147 0 252.5 -95.5t105.5 -247.5q0 -106 -46 -175.5t-161 -161.5q125 -104 183.5 -191.5t58.5 -208.5q0 -166 -112.5 -268t-280.5 -102q-170 0 -279.5 100t-109.5 272zM307 360 q0 -72 44 -124t112 -52q66 0 108.5 50.5t42.5 121.5q0 72 -34.5 128t-120.5 128q-84 -66 -118 -122t-34 -130zM338 1092q0 -63 26.5 -109.5t106.5 -116.5q80 66 109.5 114t29.5 114q0 63 -40 107t-97 44q-61 0 -98 -43t-37 -110z" />
<glyph unicode="9" d="M78 981q0 186 98 317.5t287 131.5q182 0 289.5 -141.5t107.5 -395.5q0 -299 -117.5 -494.5t-259 -290.5t-243.5 -126l-66 198q109 39 217.5 136.5t157.5 242.5q-43 -14 -100 -14q-182 0 -276.5 124t-94.5 312zM328 981q0 -119 44 -191.5t138 -72.5q27 0 47.5 3t40.5 11 q10 78 10 166q0 166 -39.5 251t-107.5 85q-66 0 -99.5 -64.5t-33.5 -187.5z" />
<glyph unicode=":" horiz-adv-x="520" d="M92 152q0 70 49 118.5t119 48.5q72 0 120 -48t48 -119q0 -72 -47 -121t-121 -49q-70 0 -119 49t-49 121zM92 821q0 70 49 119t119 49q72 0 120 -48t48 -120q0 -70 -47 -119t-121 -49q-70 0 -119 49.5t-49 118.5z" />
<glyph unicode=";" horiz-adv-x="542" d="M-2 -352l158 577q57 92 168 92q61 0 90.5 -23.5t36.5 -68.5l-281 -577h-172zM115 821q0 72 47 121t121 49q70 0 119 -49t49 -121q0 -70 -49 -119t-119 -49t-119 49.5t-49 118.5z" />
<glyph unicode="&#x3c;" d="M111 594v180l716 318v-203l-538 -205l538 -203v-202z" />
<glyph unicode="=" d="M111 397v174h716v-174h-716zM111 797v176h716v-176h-716z" />
<glyph unicode="&#x3e;" d="M111 276v205l536 203l-536 203v205l716 -316v-180z" />
<glyph unicode="?" horiz-adv-x="813" d="M68 1346q55 37 130.5 60.5t172.5 23.5q184 0 281.5 -93.5t97.5 -257.5q0 -113 -73 -200.5t-165 -130.5l-16 -256h-213l-23 333q90 18 153.5 80t63.5 144q0 68 -40 112.5t-124 44.5q-51 0 -94 -13t-74 -32zM221 150q0 72 49 120.5t119 48.5t120 -50t50 -119 q0 -70 -49 -119t-121 -49q-70 0 -119 49t-49 119z" />
<glyph unicode="@" horiz-adv-x="1445" d="M90 453q0 397 223.5 687t540.5 290q221 0 357.5 -160t136.5 -432q0 -231 -105.5 -477t-279.5 -246q-121 0 -140 164q-51 -78 -105 -120t-124 -42q-106 0 -161.5 97t-55.5 241q0 203 97 389t255 186q68 0 104.5 -34.5t75.5 -118.5l23 114h123l-56 -315 q-16 -90 -30.5 -182.5t-14.5 -135.5q0 -59 9.5 -82.5t35.5 -23.5q100 0 169 219t69 363q0 223 -108.5 354t-284.5 131q-272 0 -454.5 -262t-182.5 -606q0 -283 145.5 -451t372.5 -168q201 0 320.5 84t228.5 221l59 -94q-125 -156 -261 -242t-351 -86q-276 0 -453.5 199 t-177.5 539zM518 459q0 -92 33 -145.5t88 -53.5q100 0 162.5 145.5t62.5 278.5q0 92 -35 148.5t-92 56.5q-100 0 -159.5 -145.5t-59.5 -284.5z" />
<glyph unicode="A" horiz-adv-x="1040" d="M8 0l389 1409h252l383 -1409h-287l-73 299h-346l-74 -299h-244zM369 487h264l-92 404l-35 182q-4 -20 -16.5 -74.5t-24.5 -107.5z" />
<glyph unicode="B" horiz-adv-x="1048" d="M123 61v1287q59 39 151.5 60.5t208.5 21.5q217 0 337 -101.5t120 -273.5q0 -129 -63.5 -204t-153.5 -106q100 -35 177 -121.5t77 -234.5q0 -211 -136 -310t-345 -99q-244 0 -373 81zM393 193q20 -8 42 -12.5t57 -4.5q204 0 204 228q0 131 -59.5 188t-202.5 57h-41v-456z M393 809h41q127 0 181.5 49t54.5 174q0 205 -176 205q-63 0 -101 -14v-414z" />
<glyph unicode="C" horiz-adv-x="858" d="M88 705q0 305 121 515t350 210q88 0 149.5 -20.5t108.5 -61.5l-55 -187q-25 18 -59.5 29.5t-84.5 11.5q-129 0 -186 -145.5t-57 -351.5q0 -199 59.5 -341.5t181.5 -142.5q49 0 85 11.5t61 29.5l57 -201q-86 -81 -266 -81q-227 0 -346 206.5t-119 518.5z" />
<glyph unicode="D" horiz-adv-x="1091" d="M123 61v1287q66 39 150.5 60.5t193.5 21.5q276 0 406.5 -195t130.5 -526q0 -326 -125.5 -527.5t-397.5 -201.5q-240 0 -358 81zM399 215q33 -12 82 -12q129 0 184.5 118.5t55.5 395.5q0 262 -56.5 382t-187.5 120q-23 0 -42 -3.5t-36 -11.5v-989z" />
<glyph unicode="E" horiz-adv-x="806" d="M123 0v1409h608v-217h-328v-369h287v-211h-287v-395h328v-217h-608z" />
<glyph unicode="F" horiz-adv-x="788" d="M123 0v1409h608v-217h-328v-369h287v-211h-287v-612h-280z" />
<glyph unicode="G" horiz-adv-x="1081" d="M88 711q0 317 146.5 518t400.5 201q205 0 317 -82l-82 -193q-29 20 -80 34.5t-122 14.5q-135 0 -215 -128t-80 -365q0 -217 58 -359.5t175 -142.5q33 0 53.5 3t36.5 11v406h-135v194h408v-762q-53 -39 -139 -60t-205 -21q-260 0 -398.5 198.5t-138.5 532.5z" />
<glyph unicode="H" horiz-adv-x="1101" d="M123 0v1409h280v-586h293v586h283v-1409h-283v612h-293v-612h-280z" />
<glyph unicode="I" horiz-adv-x="530" d="M127 0v1409h281v-1409h-281z" />
<glyph unicode="J" horiz-adv-x="534" d="M-49 -238q74 16 126 94t52 201v1352h283v-1319q0 -250 -129 -390.5t-332 -158.5v221z" />
<glyph unicode="K" horiz-adv-x="1030" d="M127 0v1409h279v-655l309 655h276l-325 -653l356 -756h-313l-299 719l-4 -719h-279z" />
<glyph unicode="L" horiz-adv-x="745" d="M127 0v1409h281v-1192h301v-217h-582z" />
<glyph unicode="M" horiz-adv-x="1394" d="M70 0l123 1409h260l204 -784q10 -41 19.5 -83t15.5 -73q6 29 9.5 40t29.5 114l211 786h258l125 -1409h-264l-55 801l-5 157l-40 -157l-207 -801h-133l-209 801q-10 37 -20.5 88t-14.5 69l-8 -155l-54 -803h-245z" />
<glyph unicode="N" horiz-adv-x="1146" d="M123 0v1409h248l356 -723q25 -49 37 -78.5t24 -58.5v139v721h236v-1409h-213l-397 815q-27 55 -38 84t-18 45v-127v-817h-235z" />
<glyph unicode="O" horiz-adv-x="1118" d="M88 705q0 317 118 521t353 204q238 0 354.5 -202t116.5 -523q0 -322 -116.5 -523.5t-354.5 -201.5q-236 0 -353.5 201.5t-117.5 523.5zM375 715q0 -227 39 -362.5t145 -135.5q104 0 144 139.5t40 358.5q0 221 -40 359t-144 138t-144 -137t-40 -360z" />
<glyph unicode="P" horiz-adv-x="993" d="M123 0v1348q66 39 157 60.5t203 21.5q238 0 349.5 -121t111.5 -330q0 -207 -125 -324.5t-387 -117.5l-31 2v-539h-278zM401 733l31 -2q129 0 181.5 67.5t52.5 182.5q0 119 -41.5 187.5t-145.5 68.5q-47 0 -78 -12v-492z" />
<glyph unicode="Q" horiz-adv-x="1118" d="M88 705q0 317 118 521t353 204q238 0 354.5 -202t116.5 -523q0 -211 -51.5 -376t-157.5 -259l183 -256l-224 -197l-135 373q-39 -10 -86 -10q-236 0 -353.5 201.5t-117.5 523.5zM375 715q0 -227 39 -362.5t145 -135.5t146 137.5t40 360.5t-40 360t-146 137 q-104 0 -144 -137t-40 -360z" />
<glyph unicode="R" horiz-adv-x="1042" d="M123 0v1348q135 82 356 82q240 0 352.5 -117t112.5 -328q0 -127 -75.5 -225t-180.5 -123l320 -637h-310l-292 662l-5 -662h-278zM401 733l33 -6q104 0 168 65.5t64 184.5q0 127 -42.5 194.5t-142.5 67.5q-18 0 -36.5 -3t-43.5 -11v-492z" />
<glyph unicode="S" horiz-adv-x="829" d="M55 61l66 222q29 -25 79 -45.5t115 -20.5q72 0 115 41t43 107q0 76 -37 130t-147.5 148t-164.5 190.5t-54 206.5q0 176 104.5 283t271.5 107q178 0 275 -82l-51 -191q-29 23 -73 38t-103 15q-66 0 -107 -38.5t-41 -110.5q0 -70 36 -122t152.5 -150.5t175 -189.5 t58.5 -216q0 -182 -108.5 -292.5t-290.5 -110.5q-106 0 -185.5 21.5t-128.5 59.5z" />
<glyph unicode="T" horiz-adv-x="765" d="M35 1192v217h696v-217h-207v-1192h-282v1192h-207z" />
<glyph unicode="U" horiz-adv-x="1071" d="M121 408v1001h280v-1014q0 -82 38 -128t106 -46q145 0 145 176v1012h260v-1001q0 -203 -116.5 -318t-298.5 -115q-178 0 -296 116t-118 317z" />
<glyph unicode="V" horiz-adv-x="960" d="M18 1409h287l158 -850q6 -31 13 -93.5t11 -82.5q6 35 10.5 62.5t20.5 113.5l164 850h260l-338 -1409h-248z" />
<glyph unicode="W" horiz-adv-x="1415" d="M29 1409h272l125 -817q10 -63 13 -105.5t5 -60.5q4 31 8.5 62.5t18.5 101.5l158 819h188l156 -815q10 -61 15 -98t9 -70q4 33 8.5 67.5t14.5 98.5l125 817h241l-266 -1409h-233l-148 707q-10 53 -15 96t-9 61l-33 -157l-152 -707h-235z" />
<glyph unicode="X" horiz-adv-x="937" d="M2 0l326 713l-289 696h285l157 -426l168 426h248l-283 -657l322 -752h-305l-172 459l-178 -459h-279z" />
<glyph unicode="Y" horiz-adv-x="907" d="M0 1409h291l174 -518l184 518h260l-317 -795v-614h-281v614z" />
<glyph unicode="Z" horiz-adv-x="815" d="M33 0l379 1190h-340v219h686l-359 -1192h361v-217h-727z" />
<glyph unicode="[" horiz-adv-x="614" d="M123 -440v2048h442v-172h-219v-1704h219v-172h-442z" />
<glyph unicode="\" horiz-adv-x="1030" d="M25 1563l165 69l820 -2033l-166 -66z" />
<glyph unicode="]" horiz-adv-x="614" d="M49 -268h219v1704h-219v172h443v-2048h-443v172z" />
<glyph unicode="^" horiz-adv-x="985" d="M104 928l277 430q20 33 50 49t63 16q70 0 110 -65l277 -430l-103 -119l-284 373l-285 -373z" />
<glyph unicode="_" d="M-20 -260h976v-195h-976v195z" />
<glyph unicode="`" horiz-adv-x="397" d="M-12 1497q12 43 94 43q84 0 145 -43l95 -272h-125z" />
<glyph unicode="a" d="M68 326q0 197 130 286.5t373 122.5v37q0 76 -43 115t-114 39q-68 0 -125.5 -15.5t-108.5 -42.5l-55 174q59 33 144 57.5t196 24.5q168 0 265 -95t97 -310v-658q-61 -39 -149 -60t-213 -21q-195 0 -296 89t-101 257zM317 336q0 -176 160 -176q25 0 49.5 5t44.5 13v397 q-133 -18 -193.5 -70t-60.5 -169z" />
<glyph unicode="b" horiz-adv-x="983" d="M111 61v1547h264v-527q27 16 68.5 25.5t97.5 9.5q162 0 261 -144.5t99 -389.5q0 -293 -118 -447.5t-347 -154.5q-123 0 -198.5 20t-126.5 61zM375 186q37 -14 78 -14q98 0 141 101.5t43 287.5q0 170 -40 271.5t-128 101.5q-57 0 -94 -21v-727z" />
<glyph unicode="c" horiz-adv-x="733" d="M82 555q0 272 107.5 420.5t273.5 148.5q86 0 139 -20.5t90 -61.5l-53 -165q-18 18 -45 29.5t-68 11.5q-88 0 -132 -94.5t-44 -264.5q0 -168 46 -263t126 -95q43 0 69.5 10t47.5 31l55 -181q-33 -37 -88 -59t-143 -22q-174 0 -277.5 149.5t-103.5 425.5z" />
<glyph unicode="d" horiz-adv-x="983" d="M82 545q0 262 109.5 416.5t287.5 154.5q43 0 74 -5t55 -15v512h266v-1547q-61 -39 -146 -60t-202 -21q-213 0 -328.5 146t-115.5 419zM346 559q0 -184 44 -281.5t145 -97.5q18 0 37.5 1t35.5 12v735q-4 2 -22.5 5t-42.5 3q-106 0 -151.5 -101.5t-45.5 -275.5z" />
<glyph unicode="e" horiz-adv-x="970" d="M82 555q0 254 110.5 411.5t303.5 157.5q203 0 298 -160.5t95 -465.5l-543 -68q25 -240 217 -240q76 0 134.5 16.5t97.5 41.5l59 -187q-55 -39 -137 -60t-189 -21q-215 0 -330.5 150.5t-115.5 424.5zM330 602l299 37q0 143 -34 218t-106 75q-74 0 -116.5 -91t-42.5 -239z " />
<glyph unicode="f" horiz-adv-x="626" d="M66 905v199h98v113q0 188 93 291.5t257 103.5h31q20 -4 30 -4v-197q-72 0 -108.5 -36t-36.5 -132v-139h145v-199h-145v-905h-266v905h-98z" />
<glyph unicode="g" horiz-adv-x="983" d="M82 522q0 295 117.5 448.5t355.5 153.5q115 0 190.5 -21.5t128.5 -60.5v-1050q0 -225 -109.5 -339t-297.5 -114q-123 0 -202 20.5t-140 63.5l70 197q35 -27 91 -44.5t132 -17.5q98 0 144 54.5t46 152.5v58q-27 -20 -65.5 -31.5t-98.5 -11.5q-164 0 -263 148t-99 394z M346 541q0 -170 40 -269.5t128 -99.5q14 0 37.5 2t56.5 23v721q-33 14 -82 14q-94 0 -137 -100.5t-43 -290.5z" />
<glyph unicode="h" horiz-adv-x="995" d="M111 0v1608h264v-537q86 51 194 51q152 0 235 -91t83 -255v-776h-269v776q0 72 -34.5 113t-94.5 41q-63 0 -114 -29v-901h-264z" />
<glyph unicode="i" horiz-adv-x="495" d="M104 1427q0 61 41 102.5t101 41.5q59 0 102 -41t43 -103q0 -57 -43 -100t-102 -43t-100.5 41t-41.5 102zM115 0v1104h266v-1104h-266z" />
<glyph unicode="j" horiz-adv-x="493" d="M-41 -254q74 29 115 104.5t41 235.5v1018h264v-987q0 -258 -123 -417t-297 -159v205zM104 1427q0 61 41 102.5t101 41.5q59 0 102 -41t43 -103q0 -57 -43 -100t-102 -43t-100.5 41t-41.5 102z" />
<glyph unicode="k" horiz-adv-x="948" d="M113 0v1608h264v-1010l287 506h262l-308 -506l330 -598h-286l-281 578l-4 -578h-264z" />
<glyph unicode="l" horiz-adv-x="497" d="M115 0v1608h268v-1608h-268z" />
<glyph unicode="m" horiz-adv-x="1505" d="M111 0v1042q70 41 157.5 61.5t216.5 20.5q113 0 184.5 -28.5t112.5 -77.5q53 53 122 79.5t175 26.5q141 0 228.5 -91t87.5 -253v-780h-267v780q0 152 -124 152q-70 0 -117 -49v-883h-269v778q0 72 -33.5 113t-101.5 41q-35 0 -52 -3t-56 -18v-911h-264z" />
<glyph unicode="n" horiz-adv-x="995" d="M111 0v1042q70 39 164 60.5t217 21.5q203 0 299 -84t96 -260v-780h-269v780q0 74 -31.5 112t-101.5 38t-110 -21v-909h-264z" />
<glyph unicode="o" horiz-adv-x="970" d="M82 553q0 254 103.5 412.5t299.5 158.5q197 0 300.5 -157.5t103.5 -413.5q0 -258 -102.5 -415.5t-301.5 -157.5q-195 0 -299 158.5t-104 414.5zM348 559q0 -176 29 -270t108 -94q82 0 111 93t29 269t-29 273.5t-111 97.5q-80 0 -108.5 -96.5t-28.5 -272.5z" />
<glyph unicode="p" horiz-adv-x="983" d="M111 -440v1482q66 39 146.5 60.5t191.5 21.5q217 0 335.5 -143t118.5 -424q0 -262 -109.5 -417.5t-287.5 -155.5q-51 0 -75.5 5t-53.5 17v-446h-266zM375 182q25 -4 42 -7t23 -3q109 0 153 109.5t44 269.5q0 170 -42 276.5t-144 106.5q-43 0 -76 -14v-738z" />
<glyph unicode="q" horiz-adv-x="983" d="M82 522q0 291 118.5 446.5t346.5 155.5q115 0 194.5 -21.5t132.5 -60.5v-1482h-266v463q-29 -18 -65.5 -28.5t-98.5 -10.5q-164 0 -263 145t-99 393zM346 541q0 -166 41 -267.5t129 -101.5q33 0 48.5 3t43.5 20v723q-29 14 -78 14q-98 0 -141 -99.5t-43 -291.5z" />
<glyph unicode="r" horiz-adv-x="620" d="M111 0v1042q74 43 189.5 61.5t305.5 18.5l-49 -217q-43 23 -96 23q-49 0 -86 -19v-909h-264z" />
<glyph unicode="s" horiz-adv-x="745" d="M55 61l66 195q25 -23 71 -42t97 -19q53 0 83.5 26.5t30.5 75.5q0 57 -26.5 92t-112.5 99.5t-138 139t-52 175.5q0 143 85 232t224 89q90 0 154.5 -20.5t115.5 -61.5l-63 -170q-23 20 -63 37t-83 17q-49 0 -77.5 -31t-28.5 -74q0 -78 125 -170t173 -161.5t48 -182.5 q0 -139 -101 -233t-253 -94q-180 0 -275 81z" />
<glyph unicode="t" horiz-adv-x="630" d="M66 905v199h98v239l266 84v-323h145v-199h-145v-573q0 -74 23.5 -105.5t66.5 -31.5q23 0 36 4t19 6v-191q-12 -10 -51 -19t-82 -9q-133 0 -205.5 85t-72.5 232v602h-98z" />
<glyph unicode="u" horiz-adv-x="989" d="M111 362v742h266v-772q0 -143 129 -144q59 0 106 27v889h269v-1038q-59 -39 -158.5 -62.5t-224.5 -23.5q-190 0 -288.5 90t-98.5 292z" />
<glyph unicode="v" horiz-adv-x="907" d="M37 1104h272l154 -735l162 735h245l-288 -1104h-252z" />
<glyph unicode="w" horiz-adv-x="1370" d="M47 1104h250l135 -744l166 744h197l153 -744l148 744h227l-258 -1104h-231l-152 684l-160 -684h-231z" />
<glyph unicode="x" horiz-adv-x="884" d="M18 0l289 557l-258 547h266l136 -313l151 313h238l-267 -514l293 -590h-286l-146 346l-160 -346h-256z" />
<glyph unicode="y" horiz-adv-x="907" d="M37 1104h272l150 -748l168 748h243l-417 -1544h-269l158 440z" />
<glyph unicode="z" horiz-adv-x="757" d="M47 0l322 905h-297v199h628l-307 -903h309v-201h-655z" />
<glyph unicode="{" horiz-adv-x="733" d="M78 602v160q63 0 109 43t46 149v330q0 180 120 252t302 72v-152q-92 0 -143 -47t-51 -147v-332q0 -113 -58.5 -174.5t-136.5 -71.5q78 -14 136.5 -77.5t58.5 -180.5v-336q0 -100 50 -147t144 -47v-152q-184 0 -303 71t-119 255v329q0 111 -46 157t-109 46z" />
<glyph unicode="|" horiz-adv-x="438" d="M119 -440v2048h200v-2048h-200z" />
<glyph unicode="}" horiz-adv-x="733" d="M78 -104q94 0 144 47t50 147v336q0 119 58.5 181.5t136.5 72.5q-78 14 -136.5 76.5t-58.5 173.5v332q0 100 -51 147t-143 47v152q184 0 303 -71t119 -253v-330q0 -104 46 -148t109 -44v-160q-63 0 -109 -45t-46 -158v-329q0 -182 -120 -254t-302 -72v152z" />
<glyph unicode="~" horiz-adv-x="1136" d="M141 723q37 158 124 168t108 10q61 0 178 -58.5t151 -58.5q16 0 60.5 6.5t87.5 42t59 89.5l84 -189q-41 -139 -209 -164q-10 -2 -30 -2q-57 0 -174 58.5t-162 58.5h-25q-70 -8 -111.5 -46t-60.5 -89z" />
<glyph unicode="&#xa1;" horiz-adv-x="587" d="M145 819q0 70 49.5 119t118.5 49q72 0 120 -48t48 -120q0 -70 -48 -120t-120 -50q-70 0 -119 49.5t-49 120.5zM147 -440l60 917h213l57 -917h-330z" />
<glyph unicode="&#xa2;" d="M152 702q0 203 72.5 328t193.5 156l-21 205h160l-18 -197q53 -6 92 -25.5t65 -50.5l-51 -164q-14 16 -37.5 29.5t-66.5 13.5q-133 0 -133 -292q0 -145 34.5 -221t98.5 -76q37 0 59.5 10t44.5 33l53 -177q-25 -31 -64.5 -50t-94.5 -25l16 -199h-160l21 205 q-123 33 -193.5 160t-70.5 337z" />
<glyph unicode="&#xa3;" d="M82 647v180h131q-14 51 -21.5 103.5t-7.5 124.5q0 156 96.5 265.5t280.5 109.5q104 0 177 -23t116 -59l-61 -183q-27 20 -68 33.5t-102 13.5q-98 0 -142.5 -63.5t-44.5 -175.5q0 -84 17 -146h225v-180h-203q10 -51 10 -143q0 -68 -17 -136.5t-48 -121.5h440v-246h-774 q82 104 130 232t48 255q0 80 -18 160h-164z" />
<glyph unicode="&#xa4;" d="M53 356l92 101q-41 47 -60 116.5t-19 141.5q0 70 19 140.5t60 117.5l-92 100l86 92l90 -96q45 41 111 62.5t129 21.5q59 0 126 -21.5t112 -62.5l90 96l86 -92l-92 -100q41 -47 60 -116t19 -142q0 -70 -19.5 -140.5t-59.5 -117.5l92 -101l-86 -92l-90 96 q-47 -41 -109.5 -62.5t-128.5 -21.5q-63 0 -128 21.5t-112 62.5l-90 -96zM227 715q0 -115 69 -196t173 -81q102 0 171 81t69 196q0 119 -67 197.5t-173 78.5t-174 -80t-68 -196z" />
<glyph unicode="&#xa5;" d="M27 1409h280l170 -553l189 553h243l-207 -520l170 14v-117l-202 15l-76 -187l278 15v-119l-274 14v-524h-258v524l-277 -14v119l279 -15l-74 187l-205 -15v117l170 -14z" />
<glyph unicode="&#xa6;" horiz-adv-x="434" d="M119 -358v716h196v-716h-196zM119 666v716h196v-716h-196z" />
<glyph unicode="&#xa7;" d="M94 553q0 113 53.5 199t128.5 143q-43 55 -65.5 106.5t-22.5 126.5q0 133 82 217.5t224 84.5q88 0 156.5 -23t109.5 -59l-60 -168q-23 18 -61.5 34.5t-89.5 16.5q-57 0 -86 -31t-29 -78q0 -35 20.5 -73.5t71.5 -92.5l168 -170q84 -84 119 -161.5t35 -171.5 q0 -104 -56.5 -192.5t-138.5 -147.5q55 -61 81 -125t26 -144q0 -125 -93.5 -214t-224.5 -89q-106 0 -171.5 19.5t-112.5 62.5l63 189q29 -27 71 -43.5t97 -16.5q49 0 82 31t33 70q0 47 -13.5 79.5t-56.5 75.5l-188 189q-82 82 -117 163.5t-35 192.5zM291 598q0 -117 80 -197 l161 -161q39 29 70 78t31 100q0 63 -15.5 103t-64.5 91l-166 168q-37 -25 -66.5 -74t-29.5 -108z" />
<glyph unicode="&#xa8;" horiz-adv-x="397" d="M-86 1335q0 49 33 82t82 33t81.5 -33t32.5 -82t-32.5 -81.5t-81.5 -32.5t-82 32.5t-33 81.5zM252 1335q0 47 33.5 81t83.5 34q47 0 79.5 -33t32.5 -82t-32.5 -81.5t-79.5 -32.5t-82 32.5t-35 81.5z" />
<glyph unicode="&#xa9;" horiz-adv-x="1634" d="M94 705q0 301 211 511.5t512 210.5q299 0 512 -210.5t213 -511.5q0 -299 -213 -512t-512 -213q-301 0 -512 210.5t-211 514.5zM195 705q0 -258 182 -440.5t440 -182.5t440.5 182t182.5 441q0 258 -182.5 440t-440.5 182t-440 -182t-182 -440zM387 709q0 182 127 309 t311 127q106 0 186.5 -39t141.5 -111l-100 -84q-41 47 -101.5 75t-126.5 28q-127 0 -217 -88t-90 -217q0 -127 90 -217.5t217 -90.5q66 0 125.5 28t102.5 77l104 -84q-66 -72 -149 -112t-183 -40q-182 0 -310 128t-128 311z" />
<glyph unicode="&#xaa;" horiz-adv-x="638" d="M59 940q0 117 88.5 171t255.5 75v22q0 92 -108 92q-47 0 -86 -9t-76 -25l-37 104q35 16 98.5 32.5t135.5 16.5q115 0 182.5 -57t67.5 -186v-396q-45 -25 -101.5 -37t-146.5 -12q-135 0 -204 54.5t-69 154.5zM231 950q0 -111 109 -110q16 0 34.5 4t28.5 8v231 q-92 -12 -132 -39.5t-40 -93.5z" />
<glyph unicode="&#xab;" horiz-adv-x="974" d="M82 684l272 438l133 -121l-194 -317l194 -317l-133 -119zM453 684l272 438l135 -121l-196 -317l196 -317l-135 -119z" />
<glyph unicode="&#xac;" d="M111 596v178h716v-518h-178v342z" />
<glyph unicode="&#xad;" horiz-adv-x="618" d="M84 569v232h451v-232h-451z" />
<glyph unicode="&#xae;" horiz-adv-x="1634" d="M94 705q0 301 211 511.5t512 210.5q299 0 512 -210.5t213 -511.5q0 -299 -213 -512t-512 -213q-301 0 -512 210.5t-211 514.5zM195 705q0 -258 182 -440.5t440 -182.5t440.5 182t182.5 441q0 258 -182.5 440t-440.5 182t-440 -182t-182 -440zM567 293v819q94 45 215 45 q139 0 219 -70.5t80 -173.5q0 -96 -60 -158.5t-165 -76.5l297 -385h-149l-279 373h-33l-2 -373h-123zM690 758h53q102 0 156.5 33.5t54.5 119.5q0 66 -45 107t-137 41q-43 0 -82 -15v-286z" />
<glyph unicode="&#xb0;" horiz-adv-x="802" d="M86 1114q0 131 92 223.5t223 92.5t223.5 -92.5t92.5 -223.5t-92.5 -223t-223.5 -92t-223 92t-92 223zM244 1114q0 -68 45 -113t112 -45q68 0 113 45.5t45 112.5q0 68 -45 113t-113 45t-112.5 -45t-44.5 -113z" />
<glyph unicode="&#xb1;" d="M111 119v174h716v-174h-716zM111 743v175h268v331h176v-331h272v-175h-270v-331h-176v331h-270z" />
<glyph unicode="&#xb2;" horiz-adv-x="647" d="M53 553l264 444q57 94 58 160q0 55 -33 88t-96 33q-37 0 -60.5 -7t-54.5 -24l-49 123q43 27 93 40t118 13q131 0 199.5 -72.5t68.5 -176.5q0 -49 -20.5 -101.5t-71.5 -128.5l-158 -231h260v-160h-518z" />
<glyph unicode="&#xb3;" horiz-adv-x="647" d="M66 594l53 133q25 -18 55.5 -27.5t79.5 -9.5q55 0 90 35t35 88q0 68 -47 106.5t-133 38.5v105q166 20 166 121q0 41 -30 68.5t-81 27.5q-33 0 -57.5 -7t-57.5 -24l-49 119q84 55 209 55q113 0 177.5 -62.5t64.5 -152.5q0 -59 -26 -99t-73 -71q55 -31 90 -85t35 -134 q0 -115 -79.5 -196.5t-196.5 -81.5q-147 0 -225 53z" />
<glyph unicode="&#xb4;" horiz-adv-x="397" d="M76 1223l92 272q61 43 145 43q82 0 95 -43l-205 -272h-127z" />
<glyph unicode="&#xb5;" horiz-adv-x="995" d="M111 -440v1544h264v-897q27 -16 55.5 -25.5t61.5 -9.5q37 0 69.5 8t56.5 21v903h269v-1038q-72 -45 -141 -64.5t-175 -19.5q-57 0 -101 12t-95 41v-475h-264z" />
<glyph unicode="&#xb6;" d="M23 989q0 203 120.5 311.5t309.5 108.5h428v-127l-60 -2v-1720h-147v1720h-197v-1720h-149v1038q-139 29 -222 131t-83 260z" />
<glyph unicode="&#xb8;" horiz-adv-x="397" d="M-27 -387l45 88q16 -2 30.5 -2h29.5q78 0 126 19.5t48 50.5q0 29 -39 40t-133 11l41 82q168 0 235.5 -28t67.5 -101q0 -78 -90 -123t-238 -45h-59q-44 6 -64 8z" />
<glyph unicode="&#xb9;" horiz-adv-x="647" d="M100 1280q96 12 161 49t87 80h135v-858h-184v651q-31 -12 -79 -21.5t-101 -9.5z" />
<glyph unicode="&#xba;" horiz-adv-x="653" d="M47 1079q0 154 73 249t208 95t206.5 -95t71.5 -249t-70.5 -248t-207.5 -94q-135 0 -208 94.5t-73 247.5zM231 1083q0 -109 19.5 -163t77.5 -54q53 0 73.5 58.5t20.5 158.5q0 106 -19.5 164t-74.5 58t-76 -59.5t-21 -162.5z" />
<glyph unicode="&#xbb;" horiz-adv-x="974" d="M115 367l196 317l-196 317l133 121l272 -438l-272 -436zM485 367l197 317l-197 317l136 121l272 -438l-272 -436z" />
<glyph unicode="&#xbc;" horiz-adv-x="1495" d="M66 1280q94 12 159.5 49t87.5 80h133v-858h-184v651q-33 -12 -78 -21.5t-100 -9.5zM403 35l574 1409l166 -68l-574 -1409zM915 166v121l289 571h170v-569h56v-123h-56v-166h-176v166h-283zM1040 289h158v237l4 92q-8 -23 -15.5 -40t-23.5 -48z" />
<glyph unicode="&#xbd;" horiz-adv-x="1495" d="M66 1280q94 12 159.5 49t87.5 80h133v-858h-184v651q-33 -12 -78 -21.5t-100 -9.5zM344 35l576 1409l163 -68l-573 -1409zM911 0l267 444q31 53 43 88t12 72q0 55 -33 88t-96 33q-35 0 -59.5 -7t-55.5 -24l-49 123q43 25 94 39t117 14q131 0 199.5 -72.5t68.5 -176.5 q0 -92 -92 -228l-158 -233h261v-160h-519z" />
<glyph unicode="&#xbe;" horiz-adv-x="1495" d="M66 594l51 133q25 -18 56.5 -27.5t80.5 -9.5q55 0 89 36t34 87q0 68 -47 106.5t-133 38.5v105q166 18 165 121q0 41 -29.5 68.5t-80.5 27.5q-33 0 -56.5 -7t-58.5 -24l-47 119q82 55 207 55q115 0 179.5 -62.5t64.5 -152.5q0 -57 -28 -99t-71 -71q53 -31 88 -86t35 -133 q0 -115 -79.5 -196.5t-196.5 -81.5q-145 0 -223 53zM434 35l574 1409l166 -68l-576 -1409zM915 166v121l289 571h170v-569h56v-123h-56v-166h-176v166h-283zM1040 289h158v237l4 92q-8 -23 -15.5 -40t-23.5 -48z" />
<glyph unicode="&#xbf;" horiz-adv-x="815" d="M68 -111q0 115 72.5 204t166.5 132l17 252h213l22 -330q-96 -23 -157.5 -82t-61.5 -145q0 -68 40 -113t124 -45q45 0 85 8.5t87 34.5l76 -182q-51 -35 -131.5 -57.5t-176.5 -22.5q-182 0 -279 91.5t-97 254.5zM262 819q0 72 49 121t119 49t119 -49t49 -121 q0 -70 -47 -119t-121 -49q-70 0 -119 49.5t-49 118.5z" />
<glyph unicode="&#xc0;" horiz-adv-x="1040" d="M8 0l389 1409h252l383 -1409h-287l-73 299h-346l-74 -299h-244zM272 1782q16 43 99 43q82 0 141 -43l96 -271h-127zM369 487h264l-92 404l-35 182q-4 -20 -16.5 -74.5t-24.5 -107.5z" />
<glyph unicode="&#xc1;" horiz-adv-x="1040" d="M8 0l389 1409h252l383 -1409h-287l-73 299h-346l-74 -299h-244zM369 487h264l-92 404l-35 182q-4 -20 -16.5 -74.5t-24.5 -107.5zM444 1509l93 273q59 43 145 43q82 0 94 -43l-207 -273h-125z" />
<glyph unicode="&#xc2;" horiz-adv-x="1040" d="M8 0l389 1409h252l383 -1409h-287l-73 299h-346l-74 -299h-244zM262 1556l187 218q33 37 73 36q41 0 74 -36l186 -218l-69 -67l-191 147l-188 -147zM369 487h264l-92 404l-35 182q-4 -20 -16.5 -74.5t-24.5 -107.5z" />
<glyph unicode="&#xc3;" horiz-adv-x="1040" d="M8 0l389 1409h252l383 -1409h-287l-73 299h-346l-74 -299h-244zM236 1626q12 53 46.5 86t84.5 33h28q45 0 120 -42t116 -36q53 6 83.5 32.5t41.5 59.5l61 -135q-28 -97 -141 -111q-53 -8 -137 38t-127 40q-45 -6 -75 -31.5t-42 -60.5zM369 487h264l-92 404l-35 182 q-4 -20 -16.5 -74.5t-24.5 -107.5z" />
<glyph unicode="&#xc4;" horiz-adv-x="1040" d="M8 0l389 1409h252l383 -1409h-287l-73 299h-346l-74 -299h-244zM240 1624q0 49 32.5 82t81.5 33t82 -33t33 -82t-33 -82t-82 -33t-81.5 33t-32.5 82zM369 487h264l-92 404l-35 182q-4 -20 -16.5 -74.5t-24.5 -107.5zM578 1624q0 49 32.5 82t81.5 33t82 -33t33 -82 t-33 -82t-82 -33t-81.5 33t-32.5 82z" />
<glyph unicode="&#xc5;" horiz-adv-x="1040" d="M8 0l389 1409h252l383 -1409h-287l-73 299h-346l-74 -299h-244zM348 1667q0 72 51.5 123t124.5 51q72 0 123 -51t51 -123t-51 -123t-123 -51q-74 0 -125 51t-51 123zM369 485h264l-92 406l-35 182q-4 -20 -16.5 -74.5t-24.5 -107.5zM432 1667q0 -37 26.5 -63.5 t65.5 -26.5t64.5 25.5t25.5 64.5t-26.5 65.5t-63.5 26.5q-39 0 -65.5 -26.5t-26.5 -65.5z" />
<glyph unicode="&#xc6;" horiz-adv-x="1265" d="M-29 0l500 1409h647v-235h-360l69 -340h291v-230h-248l76 -368h297v-236h-532l-47 297h-345l-98 -297h-250zM375 485h266l-63 418l-21 170q-10 -33 -20.5 -66.5t-30.5 -101.5z" />
<glyph unicode="&#xc7;" horiz-adv-x="858" d="M88 705q0 305 121 515t350 210q88 0 149.5 -20.5t108.5 -61.5l-55 -187q-25 18 -59.5 29.5t-84.5 11.5q-129 0 -186 -145.5t-57 -351.5q0 -199 59.5 -341.5t181.5 -142.5q49 0 85 11.5t61 29.5l57 -201q-86 -81 -266 -81q-227 0 -346 206.5t-119 518.5zM270 -383l45 88 q16 0 35 -2t29 -2q76 0 123 20.5t47 51.5q0 29 -36 39t-138 10l41 82q168 0 235.5 -28t67.5 -99q0 -78 -87 -123t-235 -45h-75q-36 6 -52 8z" />
<glyph unicode="&#xc8;" horiz-adv-x="806" d="M123 0v1409h608v-217h-328v-369h287v-211h-287v-395h328v-217h-608zM176 1782q16 43 100 43q82 0 142 -43l94 -271h-127z" />
<glyph unicode="&#xc9;" horiz-adv-x="806" d="M123 0v1409h608v-217h-328v-369h287v-211h-287v-395h328v-217h-608zM309 1509l92 273q61 43 146 43q84 0 96 -43l-207 -273h-127z" />
<glyph unicode="&#xca;" horiz-adv-x="806" d="M123 0v1409h608v-217h-328v-369h287v-211h-287v-395h328v-217h-608zM156 1556l184 218q31 37 74 36q45 0 75 -36l185 -218l-70 -67l-190 147l-189 -147z" />
<glyph unicode="&#xcb;" horiz-adv-x="813" d="M129 0v1409h608v-217h-327v-369h286v-211h-286v-395h327v-217h-608zM147 1624q0 47 32 81t81 34t82 -33t33 -82t-33 -82t-82 -33q-47 0 -80 33t-33 82zM485 1624q0 47 32 81t81 34t82 -33t33 -82t-33 -82t-82 -33q-47 0 -80 33t-33 82z" />
<glyph unicode="&#xcc;" horiz-adv-x="532" d="M72 1782q16 43 98 43t141 -43l97 -271h-127zM176 0v1409h281v-1409h-281z" />
<glyph unicode="&#xcd;" horiz-adv-x="528" d="M123 0v1409h280v-1409h-280zM170 1509l94 273q59 43 144 43q84 0 96 -43l-207 -273h-127z" />
<glyph unicode="&#xce;" horiz-adv-x="532" d="M8 1556l185 218q31 37 73 36q41 0 74 -36l184 -218l-69 -67l-189 147l-190 -147zM125 0v1409h283v-1409h-283z" />
<glyph unicode="&#xcf;" horiz-adv-x="532" d="M-18 1624q0 49 32.5 82t81.5 33t82 -33t33 -82t-33 -82t-82 -33t-81.5 33t-32.5 82zM125 0v1409h281v-1409h-281zM319 1624q0 47 34 81t83 34q47 0 80 -33t33 -82t-33 -82t-80 -33t-82 33t-35 82z" />
<glyph unicode="&#xd0;" horiz-adv-x="1120" d="M63 651v201h87v496q137 82 346 82q274 0 404 -195t130 -526q0 -322 -123 -525.5t-397 -203.5q-242 0 -360 81v592zM424 217q31 -12 86 -12q117 0 177.5 113.5t60.5 398.5q0 258 -58.5 380t-185.5 122q-51 0 -80 -13v-354h143v-199h-143v-436z" />
<glyph unicode="&#xd1;" horiz-adv-x="1146" d="M123 0v1409h248l356 -723q25 -49 37 -78.5t24 -58.5v139v721h236v-1409h-213l-397 815q-27 55 -38 84t-18 45v-127v-817h-235zM279 1626q27 106 135 119q61 8 141 -35t109 -43q57 0 88.5 26.5t44.5 65.5l63 -135q-28 -97 -141 -111q-49 -6 -140.5 38t-123.5 40 q-47 -6 -76 -30.5t-41 -61.5z" />
<glyph unicode="&#xd2;" horiz-adv-x="1118" d="M88 705q0 317 118 521t353 204q238 0 354.5 -202t116.5 -523q0 -322 -116.5 -523.5t-354.5 -201.5q-236 0 -353.5 201.5t-117.5 523.5zM313 1782q12 43 99 43q82 0 141 -43l94 -271h-127zM375 715q0 -227 39 -362.5t145 -135.5q104 0 144 139.5t40 358.5q0 221 -40 359 t-144 138t-144 -137t-40 -360z" />
<glyph unicode="&#xd3;" horiz-adv-x="1118" d="M88 705q0 317 118 521t353 204q238 0 354.5 -202t116.5 -523q0 -322 -116.5 -523.5t-354.5 -201.5q-236 0 -353.5 201.5t-117.5 523.5zM375 715q0 -227 39 -362.5t145 -135.5q104 0 144 139.5t40 358.5q0 221 -40 359t-144 138t-144 -137t-40 -360zM471 1509l92 273 q61 43 146 43q82 0 94 -43l-205 -273h-127z" />
<glyph unicode="&#xd4;" horiz-adv-x="1118" d="M88 705q0 317 118 521t353 204q238 0 354.5 -202t116.5 -523q0 -322 -116.5 -523.5t-354.5 -201.5q-236 0 -353.5 201.5t-117.5 523.5zM299 1556l184 218q31 37 76 36q41 0 74 -36l184 -218l-67 -67l-191 147l-190 -147zM375 715q0 -227 39 -362.5t145 -135.5 q104 0 144 139.5t40 358.5q0 221 -40 359t-144 138t-144 -137t-40 -360z" />
<glyph unicode="&#xd5;" horiz-adv-x="1118" d="M88 705q0 317 118 521t353 204q238 0 354.5 -202t116.5 -523q0 -322 -116.5 -523.5t-354.5 -201.5q-236 0 -353.5 201.5t-117.5 523.5zM270 1626q27 106 136 119q61 8 141 -35t108 -43q57 0 89 26.5t44 65.5l64 -135q-28 -97 -141 -111q-49 -6 -140.5 38t-124.5 40 q-47 -6 -75.5 -30.5t-40.5 -61.5zM375 715q0 -227 39 -362.5t145 -135.5q104 0 144 139.5t40 358.5q0 221 -40 359t-144 138t-144 -137t-40 -360z" />
<glyph unicode="&#xd6;" horiz-adv-x="1118" d="M88 705q0 317 118 521t353 204q238 0 354.5 -202t116.5 -523q0 -322 -116.5 -523.5t-354.5 -201.5q-236 0 -353.5 201.5t-117.5 523.5zM276 1624q0 47 32 81t81 34t82 -33t33 -82t-33 -82t-82 -33q-47 0 -80 33t-33 82zM375 715q0 -227 39 -362.5t145 -135.5 q104 0 144 139.5t40 358.5q0 221 -40 359t-144 138t-144 -137t-40 -360zM614 1624q0 47 32 81t81 34t82 -33t33 -82t-33 -82t-82 -33q-47 0 -80 33t-33 82z" />
<glyph unicode="&#xd7;" d="M111 188v164h716v-164h-716zM111 455v188l536 191l-536 192v188l716 -299v-163z" />
<glyph unicode="&#xd8;" horiz-adv-x="1159" d="M90 705q0 317 123 521t367 204q170 0 288 -113l119 217l80 -45l-135 -244q70 -100 103.5 -238.5t33.5 -301.5q0 -313 -124.5 -519t-364.5 -206q-172 0 -289 110l-119 -215l-80 43l135 246q-70 100 -103.5 237.5t-33.5 303.5zM354 717q0 -78 7.5 -139.5t27.5 -128.5 l356 651q-27 68 -67.5 104.5t-97.5 36.5q-125 0 -175.5 -151.5t-50.5 -372.5zM418 315q27 -61 65.5 -91.5t94.5 -30.5q125 0 175 151.5t50 372.5q0 63 -6.5 126t-24.5 120z" />
<glyph unicode="&#xd9;" horiz-adv-x="1071" d="M121 408v1001h280v-1014q0 -82 38 -128t106 -46q145 0 145 176v1012h260v-1001q0 -203 -116.5 -318t-298.5 -115q-178 0 -296 116t-118 317zM309 1782q16 43 101 43q82 0 141 -43l94 -271h-127z" />
<glyph unicode="&#xda;" horiz-adv-x="1071" d="M121 408v1001h280v-1014q0 -82 38 -128t106 -46q145 0 145 176v1012h260v-1001q0 -203 -116.5 -318t-298.5 -115q-178 0 -296 116t-118 317zM442 1509l93 273q61 43 145 43t96 -43l-207 -273h-127z" />
<glyph unicode="&#xdb;" horiz-adv-x="1071" d="M121 408v1001h280v-1014q0 -82 38 -128t106 -46q145 0 145 176v1012h260v-1001q0 -203 -116.5 -318t-298.5 -115q-178 0 -296 116t-118 317zM279 1556l184 218q31 37 74 36q45 0 75 -36l185 -218l-70 -67l-190 147l-191 -147z" />
<glyph unicode="&#xdc;" horiz-adv-x="1071" d="M121 408v1001h280v-1014q0 -82 38 -128t106 -46q145 0 145 176v1012h260v-1001q0 -203 -116.5 -318t-298.5 -115q-178 0 -296 116t-118 317zM264 1624q0 49 33 82t82 33t82 -33t33 -82t-33 -82t-82 -33t-82 33t-33 82zM604 1624q0 49 33 82t80 33q49 0 81.5 -33t32.5 -82 t-32.5 -82t-81.5 -33q-47 0 -80 33t-33 82z" />
<glyph unicode="&#xdd;" horiz-adv-x="907" d="M0 1409h293l174 -518l182 518h258l-313 -795v-614h-283v614zM379 1509l92 273q61 43 145 43q82 0 95 -43l-205 -273h-127z" />
<glyph unicode="&#xde;" horiz-adv-x="999" d="M123 0v1409h280v-231q37 12 93 12q229 0 337.5 -120t108.5 -327q0 -195 -105.5 -321.5t-312.5 -126.5q-43 0 -90 6l-31 4v-305h-280zM403 498l31 -2q123 0 176.5 68.5t53.5 174.5q0 117 -46.5 191t-138.5 74q-16 0 -38.5 -4.5t-37.5 -8.5v-493z" />
<glyph unicode="&#xdf;" horiz-adv-x="1036" d="M113 0v1034q0 276 104.5 435t298.5 159q184 0 285.5 -139t101.5 -356q0 -109 -18 -183q-70 -12 -109 -49t-39 -108q0 -78 87 -172.5t116 -160t29 -151.5q0 -141 -92.5 -233t-235.5 -92q-68 0 -115 15t-75 46l43 197q10 -10 39.5 -21.5t60.5 -11.5q51 0 81 29.5t30 83.5 q0 51 -17.5 85.5t-106.5 133t-89 229.5q0 88 36.5 145.5t104.5 92.5q4 25 8 55.5t4 56.5q0 299 -129 299q-137 0 -137 -358v-1061h-266z" />
<glyph unicode="&#xe0;" d="M68 326q0 197 130 286.5t373 122.5v37q0 76 -43 115t-114 39q-68 0 -125.5 -15.5t-108.5 -42.5l-55 174q59 33 144 57.5t196 24.5q168 0 265 -95t97 -310v-658q-61 -39 -149 -60t-213 -21q-195 0 -296 89t-101 257zM248 1495q16 43 98 43t141 -43l95 -270h-125zM317 336 q0 -176 160 -176q25 0 49.5 5t44.5 13v397q-133 -18 -193.5 -70t-60.5 -169z" />
<glyph unicode="&#xe1;" d="M68 326q0 197 130 286.5t373 122.5v37q0 76 -43 115t-114 39q-68 0 -125.5 -15.5t-108.5 -42.5l-55 174q59 33 144 57.5t196 24.5q168 0 265 -95t97 -310v-658q-61 -39 -149 -60t-213 -21q-195 0 -296 89t-101 257zM317 336q0 -176 160 -176q25 0 49.5 5t44.5 13v397 q-133 -18 -193.5 -70t-60.5 -169zM401 1223l95 272q59 43 143 43t96 -43l-207 -272h-127z" />
<glyph unicode="&#xe2;" d="M68 326q0 197 130 286.5t373 122.5v37q0 76 -43 115t-114 39q-68 0 -125.5 -15.5t-108.5 -42.5l-55 174q59 33 144 57.5t196 24.5q168 0 265 -95t97 -310v-658q-61 -39 -149 -60t-213 -21q-195 0 -296 89t-101 257zM213 1270l184 217q31 37 74 37q45 0 76 -37l184 -217 l-69 -68l-189 148l-190 -148zM317 336q0 -176 160 -176q25 0 49.5 5t44.5 13v397q-133 -18 -193.5 -70t-60.5 -169z" />
<glyph unicode="&#xe3;" d="M68 326q0 197 130 286.5t373 122.5v37q0 76 -43 115t-114 39q-68 0 -125.5 -15.5t-108.5 -42.5l-55 174q59 33 144 57.5t196 24.5q168 0 265 -95t97 -310v-658q-61 -39 -149 -60t-213 -21q-195 0 -296 89t-101 257zM180 1335q27 109 135 121q53 6 137.5 -39t122.5 -39 q51 6 82 33t41 59l64 -137q-29 -94 -144 -108q-47 -6 -138 38t-124 40q-47 -8 -75.5 -34t-40.5 -59zM317 336q0 -176 160 -176q25 0 49.5 5t44.5 13v397q-133 -18 -193.5 -70t-60.5 -169z" />
<glyph unicode="&#xe4;" d="M68 326q0 197 130 286.5t373 122.5v37q0 76 -43 115t-114 39q-68 0 -125.5 -15.5t-108.5 -42.5l-55 174q59 33 144 57.5t196 24.5q168 0 265 -95t97 -310v-658q-61 -39 -149 -60t-213 -21q-195 0 -296 89t-101 257zM199 1335q0 49 32.5 82t81.5 33t82 -33t33 -82 t-33 -81.5t-82 -32.5t-81.5 32.5t-32.5 81.5zM317 336q0 -176 160 -176q25 0 49.5 5t44.5 13v397q-133 -18 -193.5 -70t-60.5 -169zM539 1335q0 47 31.5 81t80.5 34t82 -33t33 -82t-33 -81.5t-82 -32.5q-47 0 -79.5 32.5t-32.5 81.5z" />
<glyph unicode="&#xe5;" d="M68 326q0 197 130 286.5t373 122.5v37q0 76 -43 115t-114 39q-68 0 -125.5 -15.5t-108.5 -42.5l-55 174q59 33 144 57.5t196 24.5q168 0 265 -95t97 -310v-658q-61 -39 -149 -60t-213 -21q-195 0 -296 89t-101 257zM311 1386q0 72 51.5 123.5t122.5 51.5q72 0 123 -51.5 t51 -123.5t-51 -123t-123 -51t-123 51.5t-51 122.5zM317 336q0 -176 160 -176q25 0 49.5 5t44.5 13v397q-133 -18 -193.5 -70t-60.5 -169zM393 1386q0 -37 26.5 -63.5t65.5 -26.5t64.5 26t25.5 64q0 39 -24.5 66t-65.5 27q-39 0 -65.5 -27t-26.5 -66z" />
<glyph unicode="&#xe6;" horiz-adv-x="1433" d="M70 328q0 195 126 286t377 121v41q0 74 -43 113t-118 39q-68 0 -118 -14.5t-112 -47.5l-53 176q57 35 137 58.5t185 23.5q94 0 157.5 -31.5t102.5 -105.5q43 68 107.5 102.5t158.5 34.5q193 0 285 -162.5t92 -463.5l-529 -64q10 -123 66.5 -183.5t146.5 -60.5 q78 0 134.5 15.5t93.5 40.5l57 -185q-51 -39 -126 -60t-193 -21q-90 0 -171 43t-118 110q-33 -72 -101.5 -112.5t-173.5 -40.5q-176 0 -273 91t-97 257zM319 344q0 -176 136 -176q51 0 84.5 37t33.5 102v268q-137 -16 -195.5 -69t-58.5 -162zM809 602l289 35q0 145 -34 223 t-106 78q-70 0 -109.5 -95t-39.5 -241z" />
<glyph unicode="&#xe7;" horiz-adv-x="733" d="M82 555q0 272 107.5 420.5t273.5 148.5q86 0 139 -20.5t90 -61.5l-53 -165q-18 18 -45 29.5t-68 11.5q-88 0 -132 -94.5t-44 -264.5q0 -168 46 -263t126 -95q43 0 69.5 10t47.5 31l55 -181q-33 -37 -88 -59t-143 -22q-174 0 -277.5 149.5t-103.5 425.5zM168 -383l45 88 q16 -2 30.5 -2h28.5q78 0 126 19.5t48 50.5q0 29 -38.5 40t-135.5 11l43 80q166 0 233.5 -28t67.5 -99q0 -78 -89 -123t-236 -45h-60q-43 6 -63 8z" />
<glyph unicode="&#xe8;" horiz-adv-x="970" d="M82 555q0 254 110.5 411.5t303.5 157.5q203 0 298 -160.5t95 -465.5l-543 -68q25 -240 217 -240q76 0 134.5 16.5t97.5 41.5l59 -187q-55 -39 -137 -60t-189 -21q-215 0 -330.5 150.5t-115.5 424.5zM254 1495q16 43 98 43t142 -43l94 -270h-123zM330 602l299 37 q0 143 -34 218t-106 75q-74 0 -116.5 -91t-42.5 -239z" />
<glyph unicode="&#xe9;" horiz-adv-x="970" d="M82 555q0 254 110.5 411.5t303.5 157.5q203 0 298 -160.5t95 -465.5l-543 -68q25 -240 217 -240q76 0 134.5 16.5t97.5 41.5l59 -187q-55 -39 -137 -60t-189 -21q-215 0 -330.5 150.5t-115.5 424.5zM330 602l299 37q0 143 -34 218t-106 75q-74 0 -116.5 -91t-42.5 -239z M412 1223l92 272q59 43 143 43t96 -43l-206 -272h-125z" />
<glyph unicode="&#xea;" horiz-adv-x="970" d="M82 555q0 254 110.5 411.5t303.5 157.5q203 0 298 -160.5t95 -465.5l-543 -68q25 -240 217 -240q76 0 134.5 16.5t97.5 41.5l59 -187q-55 -39 -137 -60t-189 -21q-215 0 -330.5 150.5t-115.5 424.5zM233 1270l185 217q31 37 74 37q45 0 75 -37l185 -217l-70 -68l-188 148 l-191 -148zM330 602l299 37q0 143 -34 218t-106 75q-74 0 -116.5 -91t-42.5 -239z" />
<glyph unicode="&#xeb;" horiz-adv-x="970" d="M82 555q0 254 110.5 411.5t303.5 157.5q203 0 298 -160.5t95 -465.5l-543 -68q25 -240 217 -240q76 0 134.5 16.5t97.5 41.5l59 -187q-55 -39 -137 -60t-189 -21q-215 0 -330.5 150.5t-115.5 424.5zM217 1335q0 49 33 82t82 33t81.5 -33t32.5 -82t-32.5 -81.5 t-81.5 -32.5t-82 32.5t-33 81.5zM330 602l299 37q0 143 -34 218t-106 75q-74 0 -116.5 -91t-42.5 -239zM557 1335q0 47 32 81t81 34t81.5 -33t32.5 -82t-32.5 -81.5t-81.5 -32.5q-47 0 -80 32.5t-33 81.5z" />
<glyph unicode="&#xec;" horiz-adv-x="493" d="M23 1495q12 43 98 43q82 0 141 -43l94 -270h-127zM121 0v1104h264v-1104h-264z" />
<glyph unicode="&#xed;" horiz-adv-x="493" d="M113 0v1104h264v-1104h-264zM137 1223l94 272q61 43 146 43q82 0 94 -43l-207 -272h-127z" />
<glyph unicode="&#xee;" horiz-adv-x="495" d="M-10 1270l184 217q33 37 74 37q43 0 74 -37l186 -217l-70 -68l-190 148l-189 -148zM113 0v1104h264v-1104h-264z" />
<glyph unicode="&#xef;" horiz-adv-x="509" d="M-29 1335q0 49 33 82t82 33t82 -33t33 -82t-33 -81.5t-82 -32.5t-82 32.5t-33 81.5zM115 0v1104h266v-1104h-266zM309 1335q0 49 33 82t82 33t82 -33t33 -82t-33 -81.5t-82 -32.5t-82 32.5t-33 81.5z" />
<glyph unicode="&#xf1;" horiz-adv-x="995" d="M111 0v1034q70 41 168 64.5t221 23.5q387 0 387 -342v-780h-269v780q0 150 -133 150q-39 0 -57 -3t-53 -18v-909h-264zM201 1335q23 109 135 121q53 6 137 -39t123 -39q51 6 82 33t41 59l63 -137q-28 -94 -143 -108q-47 -6 -138 38t-126 40q-45 -6 -74 -31t-41 -62z" />
<glyph unicode="&#xf2;" horiz-adv-x="970" d="M82 553q0 254 103.5 412.5t299.5 158.5q197 0 300.5 -157.5t103.5 -413.5q0 -258 -102.5 -415.5t-301.5 -157.5q-195 0 -299 158.5t-104 414.5zM246 1495q16 43 98 43t141 -43l95 -270h-125zM348 559q0 -176 29 -270t108 -94q82 0 111 93t29 269t-29 273.5t-111 97.5 q-80 0 -108.5 -96.5t-28.5 -272.5z" />
<glyph unicode="&#xf3;" horiz-adv-x="970" d="M82 553q0 254 103.5 412.5t299.5 158.5q197 0 300.5 -157.5t103.5 -413.5q0 -258 -102.5 -415.5t-301.5 -157.5q-195 0 -299 158.5t-104 414.5zM348 559q0 -176 29 -270t108 -94q82 0 111 93t29 269t-29 273.5t-111 97.5q-80 0 -108.5 -96.5t-28.5 -272.5zM397 1223 l95 272q59 43 143 43t96 -43l-207 -272h-127z" />
<glyph unicode="&#xf4;" horiz-adv-x="970" d="M82 553q0 254 103.5 412.5t299.5 158.5q197 0 300.5 -157.5t103.5 -413.5q0 -258 -102.5 -415.5t-301.5 -157.5q-195 0 -299 158.5t-104 414.5zM227 1270l185 217q31 37 73 37q45 0 76 -37l184 -217l-69 -68l-189 148l-190 -148zM348 559q0 -176 29 -270t108 -94 q82 0 111 93t29 269t-29 273.5t-111 97.5q-80 0 -108.5 -96.5t-28.5 -272.5z" />
<glyph unicode="&#xf5;" horiz-adv-x="970" d="M82 553q0 254 103.5 412.5t299.5 158.5q197 0 300.5 -157.5t103.5 -413.5q0 -258 -102.5 -415.5t-301.5 -157.5q-195 0 -299 158.5t-104 414.5zM190 1335q14 51 48 83t90 38q53 6 137 -39t123 -39q51 6 81.5 33t41.5 59l61 -137q-28 -94 -141 -108q-47 -6 -138.5 38 t-123.5 40q-45 -6 -75 -33t-44 -60zM348 559q0 -176 29 -270t108 -94q82 0 111 93t29 269t-29 273.5t-111 97.5q-80 0 -108.5 -96.5t-28.5 -272.5z" />
<glyph unicode="&#xf6;" horiz-adv-x="970" d="M82 553q0 254 103.5 412.5t299.5 158.5q197 0 300.5 -157.5t103.5 -413.5q0 -258 -102.5 -415.5t-301.5 -157.5q-195 0 -299 158.5t-104 414.5zM203 1335q0 47 31.5 81t80.5 34t82 -33t33 -82t-33 -81.5t-82 -32.5q-47 0 -79.5 32.5t-32.5 81.5zM348 559q0 -176 29 -270 t108 -94q82 0 111 93t29 269t-29 273.5t-111 97.5q-80 0 -108.5 -96.5t-28.5 -272.5zM541 1335q0 49 32.5 82t81.5 33q47 0 80 -33t33 -82t-33 -81.5t-80 -32.5q-49 0 -81.5 32.5t-32.5 81.5z" />
<glyph unicode="&#xf7;" d="M111 625v120h716v-120h-716zM338 379q0 55 39 94t92 39t92 -39t39 -94t-38 -93t-93 -38q-53 0 -92 39t-39 92zM338 991q0 55 38 93t93 38q53 0 92 -39t39 -92t-39 -92t-92 -39t-92 39t-39 92z" />
<glyph unicode="&#xf8;" horiz-adv-x="976" d="M84 -90l119 207q-55 74 -87 179t-32 257q0 256 104.5 413.5t300.5 157.5q80 0 138.5 -24.5t99.5 -61.5l113 197l53 -31l-123 -213q53 -66 89 -177.5t36 -262.5q0 -250 -103.5 -410.5t-302.5 -160.5q-82 0 -140 25.5t-103 64.5l-107 -191zM322 557q0 -74 3 -114t19 -89 l272 500q-25 49 -58.5 72.5t-68.5 23.5q-98 0 -132.5 -107.5t-34.5 -285.5zM365 266q18 -43 47.5 -68.5t76.5 -25.5q98 0 133 102.5t35 282.5q0 63 -4 114.5t-18 94.5z" />
<glyph unicode="&#xf9;" horiz-adv-x="989" d="M111 362v742h266v-772q0 -143 129 -144q59 0 106 27v889h269v-1038q-59 -39 -158.5 -62.5t-224.5 -23.5q-190 0 -288.5 90t-98.5 292zM266 1495q16 43 99 43q82 0 141 -43l94 -270h-123z" />
<glyph unicode="&#xfa;" horiz-adv-x="989" d="M111 362v742h266v-772q0 -143 129 -144q59 0 106 27v889h269v-1038q-59 -39 -158.5 -62.5t-224.5 -23.5q-190 0 -288.5 90t-98.5 292zM387 1223l94 272q59 43 146 43q82 0 94 -43l-207 -272h-127z" />
<glyph unicode="&#xfb;" horiz-adv-x="989" d="M111 362v742h266v-772q0 -143 129 -144q59 0 106 27v889h269v-1038q-59 -39 -158.5 -62.5t-224.5 -23.5q-190 0 -288.5 90t-98.5 292zM238 1270l184 217q31 37 74 37q45 0 75 -37l185 -217l-70 -68l-190 148l-191 -148z" />
<glyph unicode="&#xfc;" horiz-adv-x="989" d="M111 362v742h266v-772q0 -143 129 -144q59 0 106 27v889h269v-1038q-59 -39 -158.5 -62.5t-224.5 -23.5q-190 0 -288.5 90t-98.5 292zM211 1335q0 49 32.5 82t82.5 33q49 0 81.5 -33t32.5 -82t-32.5 -81.5t-81.5 -32.5t-82 32.5t-33 81.5zM551 1335q0 49 32.5 82t82.5 33 q47 0 79.5 -33t32.5 -82t-32.5 -81.5t-79.5 -32.5q-49 0 -82 32.5t-33 81.5z" />
<glyph unicode="&#xfd;" horiz-adv-x="913" d="M41 1104h272l150 -748l168 748h243l-417 -1544h-269l158 440zM385 1223l94 272q59 43 144 43q84 0 96 -43l-207 -272h-127z" />
<glyph unicode="&#xfe;" horiz-adv-x="980" d="M106 -440v2048h267v-527q20 12 65 24.5t88 12.5q170 0 271.5 -145.5t101.5 -415.5q0 -262 -109.5 -415.5t-287.5 -153.5q-45 0 -75 5t-52 15v-448h-269zM373 186q18 -4 33.5 -7t29.5 -3q111 0 155 110.5t44 264.5q0 170 -39 273.5t-137 103.5q-51 0 -86 -21v-721z" />
<glyph unicode="&#xff;" horiz-adv-x="913" d="M41 1104h272l150 -748l168 748h243l-417 -1544h-269l158 440zM186 1333q0 47 32 81t81 34t82 -33t33 -82t-33 -81.5t-82 -32.5q-47 0 -80 32.5t-33 81.5zM524 1333q0 49 33 82t82 33q47 0 80 -33t33 -82t-33 -81.5t-80 -32.5q-49 0 -82 32.5t-33 81.5z" />
<glyph unicode="&#x152;" horiz-adv-x="1374" d="M88 705q0 319 125 522t371 203q100 0 159 -21h555v-235h-327v-340h284v-232h-284v-366h327v-236h-559q-49 -20 -155 -20q-244 0 -370 204.5t-126 520.5zM377 713q0 -207 49 -350.5t168 -143.5q70 0 102 21v942q-37 27 -102 26q-117 0 -167 -146.5t-50 -348.5z" />
<glyph unicode="&#x153;" horiz-adv-x="1486" d="M82 549q0 256 101.5 415.5t285.5 159.5q100 0 169 -43t112 -125q88 168 282 168q193 0 283 -160.5t90 -467.5l-526 -66q10 -133 71.5 -188.5t143.5 -55.5q84 0 139 15.5t94 42.5l55 -183q-57 -41 -129.5 -61t-189.5 -20q-102 0 -182 41.5t-129 134.5q-45 -90 -109.5 -133 t-169.5 -43q-186 0 -288.5 158.5t-102.5 410.5zM348 555q0 -168 30 -266.5t111 -98.5q84 0 113 98.5t29 266.5q0 170 -29 272.5t-113 102.5q-82 0 -111.5 -104.5t-29.5 -270.5zM862 604l289 35q0 141 -33.5 220t-105.5 79q-70 0 -110 -94t-40 -240z" />
<glyph unicode="&#x178;" horiz-adv-x="907" d="M0 1407h293l174 -516l182 516h258l-315 -793v-614h-281v614zM182 1624q0 47 32 81t81 34t82 -33t33 -82t-33 -82t-82 -33q-47 0 -80 33t-33 82zM520 1624q0 47 32 81t81 34t82 -33t33 -82t-33 -82t-82 -33q-47 0 -80 33t-33 82z" />
<glyph unicode="&#x2000;" horiz-adv-x="920" />
<glyph unicode="&#x2001;" horiz-adv-x="1841" />
<glyph unicode="&#x2002;" horiz-adv-x="920" />
<glyph unicode="&#x2003;" horiz-adv-x="1841" />
<glyph unicode="&#x2004;" horiz-adv-x="613" />
<glyph unicode="&#x2005;" horiz-adv-x="460" />
<glyph unicode="&#x2006;" horiz-adv-x="306" />
<glyph unicode="&#x2007;" horiz-adv-x="306" />
<glyph unicode="&#x2008;" horiz-adv-x="230" />
<glyph unicode="&#x2009;" horiz-adv-x="368" />
<glyph unicode="&#x200a;" horiz-adv-x="102" />
<glyph unicode="&#x2010;" horiz-adv-x="618" d="M84 569v232h451v-232h-451z" />
<glyph unicode="&#x2011;" horiz-adv-x="618" d="M84 569v232h451v-232h-451z" />
<glyph unicode="&#x2012;" horiz-adv-x="618" d="M84 569v232h451v-232h-451z" />
<glyph unicode="&#x2013;" horiz-adv-x="716" d="M0 596v178h717v-176z" />
<glyph unicode="&#x2014;" horiz-adv-x="1433" d="M0 610v148h1434v-148h-1434z" />
<glyph unicode="&#x2018;" horiz-adv-x="579" d="M72 1040l278 568h170l-153 -564q-29 -45 -71 -69.5t-97 -24.5q-61 0 -91 23.5t-36 66.5z" />
<glyph unicode="&#x2019;" horiz-adv-x="579" d="M59 963l156 563q59 94 166 94q61 0 91 -23.5t36 -68.5l-277 -565h-172z" />
<glyph unicode="&#x201a;" horiz-adv-x="579" d="M59 -340l156 565q57 92 166 92q61 0 91 -23.5t36 -68.5l-277 -565h-172z" />
<glyph unicode="&#x201c;" horiz-adv-x="1054" d="M104 1040l279 568h170l-154 -564q-29 -45 -70.5 -69.5t-97.5 -24.5q-61 0 -90.5 23.5t-36.5 66.5zM514 1040l279 568h170l-154 -564q-29 -45 -71 -69.5t-97 -24.5q-61 0 -91 23.5t-36 66.5z" />
<glyph unicode="&#x201d;" horiz-adv-x="1054" d="M92 963l156 563q59 94 166 94q61 0 91 -23.5t36 -68.5l-277 -565h-172zM502 963l155 563q59 94 166 94q61 0 91 -23.5t36 -68.5l-276 -565h-172z" />
<glyph unicode="&#x201e;" horiz-adv-x="1054" d="M92 -340l156 565q57 92 166 92q61 0 91 -23.5t36 -68.5l-277 -565h-172zM502 -340l155 565q57 92 166 92q61 0 91 -23.5t36 -68.5l-276 -565h-172z" />
<glyph unicode="&#x2022;" horiz-adv-x="778" d="M102 725q0 119 84 203t203 84t203 -84t84 -203t-84 -203t-203 -84t-203 84t-84 203z" />
<glyph unicode="&#x2026;" horiz-adv-x="1806" d="M133 152q0 70 49 118.5t119 48.5q72 0 120 -48t48 -119q0 -72 -47 -121t-121 -49q-70 0 -119 49t-49 121zM735 152q0 70 49.5 118.5t118.5 48.5q72 0 120 -48t48 -119q0 -72 -47 -121t-121 -49q-70 0 -119 49t-49 121zM1337 152q0 70 49.5 118.5t118.5 48.5q72 0 120 -48 t48 -119q0 -72 -47 -121t-121 -49q-70 0 -119 49t-49 121z" />
<glyph unicode="&#x202f;" horiz-adv-x="368" />
<glyph unicode="&#x2039;" horiz-adv-x="552" d="M57 684l273 438l133 -121l-195 -317l195 -317l-133 -119z" />
<glyph unicode="&#x203a;" horiz-adv-x="552" d="M90 367l197 317l-197 317l133 121l273 -438l-273 -436z" />
<glyph unicode="&#x205f;" horiz-adv-x="460" />
<glyph unicode="&#x2122;" horiz-adv-x="1374" d="M74 1307v102h442v-102h-160v-580h-120v580h-162zM537 727l86 682h153l129 -535l123 535h156l86 -682h-119l-55 555l-140 -555h-108l-141 553l-54 -553h-116z" />
<glyph unicode="&#xe000;" horiz-adv-x="1105" d="M0 0v1106h1106v-1106h-1106z" />
</font>
</defs>
</svg>
